name symmetric_stride_kinematics_IKTD_Minus_6.mot
datacolumns 38
datarows 5
range 1.04516801 1.04934868
endheader
                time	/jointset/ground_pelvis/pelvis_tilt/value	/jointset/ground_pelvis/pelvis_list/value	/jointset/ground_pelvis/pelvis_rotation/value	/jointset/ground_pelvis/pelvis_tx/value	/jointset/ground_pelvis/pelvis_ty/value	/jointset/ground_pelvis/pelvis_tz/value	/jointset/hip_r/hip_flexion_r/value	/jointset/hip_r/hip_adduction_r/value	/jointset/hip_r/hip_rotation_r/value	/jointset/knee_r/knee_angle_r/value	/jointset/ankle_r/ankle_angle_r/value	/jointset/subtalar_r/subtalar_angle_r/value	/jointset/mtp_r/mtp_angle_r/value	/jointset/hip_l/hip_flexion_l/value	/jointset/hip_l/hip_adduction_l/value	/jointset/hip_l/hip_rotation_l/value	/jointset/knee_l/knee_angle_l/value	/jointset/ankle_l/ankle_angle_l/value	/jointset/subtalar_l/subtalar_angle_l/value	/jointset/mtp_l/mtp_angle_l/value	/jointset/back/lumbar_extension/value	/jointset/back/lumbar_bending/value	/jointset/back/lumbar_rotation/value	/jointset/acromial_r/arm_flex_r/value	/jointset/acromial_r/arm_add_r/value	/jointset/acromial_r/arm_rot_r/value	/jointset/elbow_r/elbow_flex_r/value	/jointset/radioulnar_r/pro_sup_r/value	/jointset/radius_hand_r/wrist_flex_r/value	/jointset/radius_hand_r/wrist_dev_r/value	/jointset/acromial_l/arm_flex_l/value	/jointset/acromial_l/arm_add_l/value	/jointset/acromial_l/arm_rot_l/value	/jointset/elbow_l/elbow_flex_l/value	/jointset/radioulnar_l/pro_sup_l/value	/jointset/radius_hand_l/wrist_flex_l/value	/jointset/radius_hand_l/wrist_dev_l/value	
          1.04516801	         -7.10498288	          3.70650999	          6.63057129	         12.35000012	          0.99564809	          0.30736795	         34.23433192	        -10.43290100	          2.58308455	       -118.53295328	         -8.00033963	        -20.12278531	         -3.54915501	         34.06899751	          3.34426211	          0.88219043	        -17.47165200	        -21.91942290	        -16.22603662	         -1.07640024	        -17.84281962	         -7.88588875	          2.38625165	         -0.45028241	        -18.40922446	        -11.48749439	         73.51448870	         54.95156439	          0.06420662	          5.53706852	         -6.09382121	        -25.24644539	        -13.32632365	        104.17503655	         78.38781109	        -23.37888382	          5.16205489	
          1.04581623	         -7.17726747	          3.62135275	          6.87182964	         12.35777857	          0.99514069	          0.30749482	         34.71525852	        -10.45502714	          2.46386542	       -118.84098460	         -7.82502647	        -20.17781931	         -3.24415933	         33.72713391	          3.34179267	          0.88894075	        -17.31364360	        -21.37552392	        -15.69537646	         -0.79204822	        -17.71233643	         -7.78565312	          2.17473573	         -0.92418598	        -18.16989235	        -11.20629149	         73.40345106	         55.33476535	         -0.00952631	          5.57225656	         -5.13075315	        -25.14497902	        -13.21928538	        104.36678982	         78.68084969	        -23.29267608	          5.18112314	
          1.04786433	         -7.39979909	          3.33952237	          7.64496560	         12.38239172	          0.99344836	          0.30790398	         36.23787662	        -10.54057356	          2.08073505	       -119.79784284	         -7.30889124	        -20.34428525	         -2.44228495	         32.63711633	          3.31832283	          0.99295182	        -16.84205063	        -19.56443336	        -14.24251993	          0.03043085	        -17.29276085	         -7.46092053	          1.48457112	         -2.43372421	        -17.41084008	        -10.29035556	         73.12910912	         56.45259219	         -0.24154391	          5.73304169	         -2.10014071	        -24.79282914	        -12.90348690	        104.94584738	         79.74314669	        -22.99486156	          5.22912318	
          1.04934868	         -7.55321449	          3.12576422	          8.21508248	         12.40026587	          0.99214253	          0.30820788	         37.34114687	        -10.62090122	          1.79837726	       -120.47506544	         -6.97081900	        -20.46014120	         -2.01100363	         31.83669729	          3.28587417	          1.13817347	        -16.53886554	        -18.17454039	        -13.40106250	          0.66207009	        -16.98481964	         -7.22072224	          0.96219438	         -3.53993803	        -16.86016430	         -9.59955246	         72.99767752	         57.22941350	         -0.40796082	          5.86949934	          0.07952209	        -24.50931553	        -12.70437468	        105.35097018	         80.58764686	        -22.76538703	          5.26435116	
          1.04934868	         -7.55321449	          3.12576422	          8.21508248	         12.40026587	          0.99214253	          0.30820788	         37.34114687	        -10.62090122	          1.79837726	       -120.47506544	         -6.97081900	        -20.46014120	         -2.01100363	         31.83669729	          3.28587417	          1.13817347	        -16.53886554	        -18.17454039	        -13.40106250	          0.66207009	        -16.98481964	         -7.22072224	          0.96219438	         -3.53993803	        -16.86016430	         -9.59955246	         72.99767752	         57.22941350	         -0.40796082	          5.86949934	          0.07952209	        -24.50931553	        -12.70437468	        105.35097018	         80.58764686	        -22.76538703	          5.26435116	
